# xmcd
#
# Track frame offsets: 
#        150
#        18770
#        39385
#        56412
#        72474
#        91104
#        110590
#        130930
#        147619
#        164752
#        181375
#        200428
#
# Disc length: 2923 seconds
#
# Revision: 0
# Processed by: cddbd v1.5.2PL0 Copyright (c) Steve Scherf et al.
# Submitted via: ExactAudioCopyFreeDBPlugin 1.0
#
DISCID=ab0b690c
DTITLE=P'UNK~EN~CIEL - P'UNK IS NOT DEAD
DYEAR=2012
DGENRE=Punk Rock
TTITLE0=夏の憂鬱 [SEA IN BLOOD 2007]
TTITLE1=花葬 平成十七年
TTITLE2=HEAVEN'S DRIVE 2005
TTITLE3=Round and Round 2005
TTITLE4=Dune 2008
TTITLE5=I Wish 2007
TTITLE6=Promised land 2005
TTITLE7=HONEY 2007
TTITLE8=Feeling Fine 2007
TTITLE9=ROUTE 666 -2010-
TTITLE10=milky way 2004
TTITLE11=metropolis 2011
EXTD=
EXTT0=
EXTT1=
EXTT2=
EXTT3=
EXTT4=
EXTT5=
EXTT6=
EXTT7=
EXTT8=
EXTT9=
EXTT10=
EXTT11=
PLAYORDER=
